<svg version="1.1" xmlns="http://www.w3.org/2000/svg" xmlns:xlink="http://www.w3.org/1999/xlink" width="242.53865pt" height="98.235547pt" viewBox="19.92528 -.000002 242.53865 98.235547">
<defs>
<path id="g0-76" d="M3.726027-6.027397C3.815691-6.386052 3.845579-6.495641 4.782067-6.495641C5.080946-6.495641 5.160648-6.495641 5.160648-6.684932C5.160648-6.804483 5.051059-6.804483 5.001245-6.804483C4.672478-6.804483 3.855542-6.774595 3.526775-6.774595C3.227895-6.774595 2.500623-6.804483 2.201743-6.804483C2.132005-6.804483 2.012453-6.804483 2.012453-6.60523C2.012453-6.495641 2.102117-6.495641 2.291407-6.495641C2.311333-6.495641 2.500623-6.495641 2.669988-6.475716C2.849315-6.455791 2.938979-6.445828 2.938979-6.316314C2.938979-6.276463 2.929016-6.246575 2.899128-6.127024L1.564134-.777086C1.464508-.388543 1.444583-.308842 .657534-.308842C.488169-.308842 .388543-.308842 .388543-.109589C.388543 0 .478207 0 .657534 0H5.270237C5.50934 0 5.519303 0 5.579078-.169365L6.366127-2.321295C6.405978-2.430884 6.405978-2.450809 6.405978-2.460772C6.405978-2.500623 6.37609-2.570361 6.286426-2.570361S6.1868-2.520548 6.117061-2.361146C5.778331-1.444583 5.339975-.308842 3.616438-.308842H2.67995C2.540473-.308842 2.520548-.308842 2.460772-.318804C2.361146-.328767 2.331258-.33873 2.331258-.418431C2.331258-.448319 2.331258-.468244 2.381071-.647572L3.726027-6.027397Z"/>
<path id="g0-120" d="M3.327522-3.008717C3.387298-3.267746 3.616438-4.184309 4.313823-4.184309C4.363636-4.184309 4.60274-4.184309 4.811955-4.054795C4.533001-4.004981 4.333748-3.755915 4.333748-3.516812C4.333748-3.35741 4.443337-3.16812 4.712329-3.16812C4.931507-3.16812 5.250311-3.347447 5.250311-3.745953C5.250311-4.26401 4.662516-4.403487 4.323786-4.403487C3.745953-4.403487 3.39726-3.875467 3.277709-3.646326C3.028643-4.303861 2.49066-4.403487 2.201743-4.403487C1.165629-4.403487 .597758-3.118306 .597758-2.86924C.597758-2.769614 .697385-2.769614 .71731-2.769614C.797011-2.769614 .826899-2.789539 .846824-2.879203C1.185554-3.935243 1.843088-4.184309 2.181818-4.184309C2.371108-4.184309 2.719801-4.094645 2.719801-3.516812C2.719801-3.20797 2.550436-2.540473 2.181818-1.145704C2.022416-.52802 1.673724-.109589 1.235367-.109589C1.175592-.109589 .946451-.109589 .737235-.239103C.986301-.288917 1.205479-.498132 1.205479-.777086C1.205479-1.046077 .986301-1.125778 .836862-1.125778C.537983-1.125778 .288917-.86675 .288917-.547945C.288917-.089664 .787049 .109589 1.225405 .109589C1.882939 .109589 2.241594-.587796 2.271482-.647572C2.391034-.278954 2.749689 .109589 3.347447 .109589C4.373599 .109589 4.941469-1.175592 4.941469-1.424658C4.941469-1.524284 4.851806-1.524284 4.821918-1.524284C4.732254-1.524284 4.712329-1.484433 4.692403-1.414695C4.363636-.348692 3.686177-.109589 3.367372-.109589C2.978829-.109589 2.819427-.428394 2.819427-.767123C2.819427-.986301 2.879203-1.205479 2.988792-1.643836L3.327522-3.008717Z"/>
<path id="g1-1" d="M4.403487-6.953923C4.333748-7.083437 4.313823-7.13325 4.144458-7.13325S3.955168-7.083437 3.88543-6.953923L.518057-.199253C.468244-.109589 .468244-.089664 .468244-.079701C.468244 0 .52802 0 .687422 0H7.601494C7.760897 0 7.820672 0 7.820672-.079701C7.820672-.089664 7.820672-.109589 7.770859-.199253L4.403487-6.953923ZM3.825654-6.136986L6.505604-.757161H1.135741L3.825654-6.136986Z"/>
<path id="g1-48" d="M4.582814-3.188045C4.582814-3.985056 4.533001-4.782067 4.184309-5.519303C3.726027-6.475716 2.909091-6.635118 2.49066-6.635118C1.892902-6.635118 1.165629-6.37609 .757161-5.449564C.438356-4.762142 .388543-3.985056 .388543-3.188045C.388543-2.440847 .428394-1.544209 .836862-.787049C1.265255 .019925 1.992528 .219178 2.480697 .219178C3.01868 .219178 3.775841 .009963 4.214197-.936488C4.533001-1.62391 4.582814-2.400996 4.582814-3.188045ZM2.480697 0C2.092154 0 1.504359-.249066 1.325031-1.205479C1.215442-1.803238 1.215442-2.719801 1.215442-3.307597C1.215442-3.945205 1.215442-4.60274 1.295143-5.140722C1.484433-6.326276 2.231631-6.41594 2.480697-6.41594C2.809465-6.41594 3.466999-6.236613 3.656289-5.250311C3.755915-4.692403 3.755915-3.935243 3.755915-3.307597C3.755915-2.560399 3.755915-1.882939 3.646326-1.24533C3.496887-.298879 2.929016 0 2.480697 0Z"/>
</defs>
<g id="page1">
<g stroke-miterlimit="10" transform="translate(45.835396,57.091388)scale(0.996264,-0.996264)">
<g fill="#000" stroke="#000">
<g stroke-width="0.4">
<g stroke-linecap="round">
<g stroke-linejoin="round">
<g stroke="#000">
<g stroke-width="0.8">
<path d="M 0.0 56.90549 L 170.71646 56.90549" fill="none"/>
</g>
</g>
<g stroke="#000">
<g stroke-width="0.8">
<path d="M 0.0 0.0 L 170.71646 0.0" fill="none"/>
</g>
</g>
<g stroke="#000">
<g stroke-width="0.8">
<path d="M -5.69046 1.42271 L -5.69046 55.48276" fill="none"/>
</g>
</g>
<g stroke="#000">
<g stroke-width="0.8">
<path d="M 5.69046 1.42271 L 5.69046 55.48276" fill="none"/>
</g>
</g>
<g transform="translate(-4.16667,23.77692)">
<g stroke="none" transform="scale(-1.00375,1.00375)translate(45.835396,57.091388)scale(-1,-1)">
<g fill="#000">
<g stroke="none">
<use x="45.835396" y="57.091388" xlink:href="#g1-1"/>
</g>
</g>
</g>
</g>
<path d="M -2.6151 21.33955 L 2.6151 21.33955" fill="none"/>
<g transform="matrix(-1.0,0.0,0.0,-1.0,-0.89049,21.33955)">
<g stroke-dasharray="none" stroke-dashoffset="0.0">
 <g stroke-linejoin="miter">
 <path d=" M 4.2304 0.0 L 0.64584 1.35075 L 1.8246 0.0 L 0.64584 -1.35075 Z  "/>
 </g>
 </g>
</g>
<g transform="translate(0.89049,21.33955)">
<g stroke-dasharray="none" stroke-dashoffset="0.0">
 <g stroke-linejoin="miter">
 <path d=" M 4.2304 0.0 L 0.64584 1.35075 L 1.8246 0.0 L 0.64584 -1.35075 Z  "/>
 </g>
 </g>
</g>
<g fill="#000" stroke="#000">
<path d="M 142.26372 55.48276 M 142.26372 55.48276 L 142.26372 1.42271 L 150.79962 1.42271 L 150.79962 55.48276 Z M 150.79962 1.42271" stroke="none"/>
</g>
<g stroke="#000">
<g stroke-width="0.8">
<path d="M 147.95418 28.45274 C 148.90254 37.92737 152.88965 45.52438 157.6278 45.52438 C 162.36597 45.52438 166.35309 37.92737 167.30145 28.45274 C 168.24982 18.97812 166.15942 11.3811 163.318 11.3811 C 160.47656 11.3811 158.38618 18.97812 159.33455 28.45274 C 160.28363 37.92737 164.27074 45.52438 169.0089 45.52438 C 173.74706 45.52438 177.73418 37.92737 178.68254 28.45274 C 179.6309 18.97812 177.54051 11.3811 174.69908 11.3811 C 171.85765 11.3811 169.76727 18.97812 170.71564 28.45274 C 171.66472 37.92737 175.65182 45.52438 180.38998 45.52438 C 185.12814 45.52438 189.11526 37.92737 190.06363 28.45274 C 191.012 18.97812 188.9216 11.3811 186.08017 11.3811 C 183.23874 11.3811 181.14836 18.97812 182.09673 28.45274 C 183.0458 37.92737 187.03291 45.52438 191.77107 45.52438 C 196.50923 45.52438 200.49635 37.92737 201.44472 28.45274 L 210.55013 28.45274" fill="none"/>
</g>
</g>
<g fill="#ececec" stroke="#ececec">
<path d="M -21.33955 49.7923 M -17.07182 49.7923 C -17.07182 52.14932 -18.98253 54.06003 -21.33955 54.06003 C -23.69658 54.06003 -25.60728 52.14932 -25.60728 49.7923 C -25.60728 47.43527 -23.69658 45.52457 -21.33955 45.52457 C -18.98253 45.52457 -17.07182 47.43527 -17.07182 49.7923 Z M -21.33955 49.7923" stroke="none"/>
</g>
<g stroke="#000">
<g stroke-width="0.8">
<path d="M -21.33955 49.7923 M -17.07182 49.7923 C -17.07182 52.14932 -18.98253 54.06003 -21.33955 54.06003 C -23.69658 54.06003 -25.60728 52.14932 -25.60728 49.7923 C -25.60728 47.43527 -23.69658 45.52457 -21.33955 45.52457 C -18.98253 45.52457 -17.07182 47.43527 -17.07182 49.7923 Z M -21.33955 49.7923" fill="none"/>
</g>
</g>
<g fill="#ececec" stroke="#ececec">
<path d="M -13.65718 34.1432 M -9.38945 34.1432 C -9.38945 36.50023 -11.30016 38.41093 -13.65718 38.41093 C -16.0142 38.41093 -17.92491 36.50023 -17.92491 34.1432 C -17.92491 31.78618 -16.0142 29.87547 -13.65718 29.87547 C -11.30016 29.87547 -9.38945 31.78618 -9.38945 34.1432 Z M -13.65718 34.1432" stroke="none"/>
</g>
<g stroke="#000">
<g stroke-width="0.8">
<path d="M -13.65718 34.1432 M -9.38945 34.1432 C -9.38945 36.50023 -11.30016 38.41093 -13.65718 38.41093 C -16.0142 38.41093 -17.92491 36.50023 -17.92491 34.1432 C -17.92491 31.78618 -16.0142 29.87547 -13.65718 29.87547 C -11.30016 29.87547 -9.38945 31.78618 -9.38945 34.1432 Z M -13.65718 34.1432" fill="none"/>
</g>
</g>
<g fill="#ececec" stroke="#ececec">
<path d="M -21.05518 13.65718 M -16.78745 13.65718 C -16.78745 16.0142 -18.69815 17.92491 -21.05518 17.92491 C -23.4122 17.92491 -25.3229 16.0142 -25.3229 13.65718 C -25.3229 11.30016 -23.4122 9.38945 -21.05518 9.38945 C -18.69815 9.38945 -16.78745 11.30016 -16.78745 13.65718 Z M -21.05518 13.65718" stroke="none"/>
</g>
<g stroke="#000">
<g stroke-width="0.8">
<path d="M -21.05518 13.65718 M -16.78745 13.65718 C -16.78745 16.0142 -18.69815 17.92491 -21.05518 17.92491 C -23.4122 17.92491 -25.3229 16.0142 -25.3229 13.65718 C -25.3229 11.30016 -23.4122 9.38945 -21.05518 9.38945 C -18.69815 9.38945 -16.78745 11.30016 -16.78745 13.65718 Z M -21.05518 13.65718" fill="none"/>
</g>
</g>
<g fill="#ececec" stroke="#ececec">
<path d="M -14.22636 5.69046 M -9.95863 5.69046 C -9.95863 8.04749 -11.86934 9.95819 -14.22636 9.95819 C -16.58339 9.95819 -18.4941 8.04749 -18.4941 5.69046 C -18.4941 3.33344 -16.58339 1.42273 -14.22636 1.42273 C -11.86934 1.42273 -9.95863 3.33344 -9.95863 5.69046 Z M -14.22636 5.69046" stroke="none"/>
</g>
<g stroke="#000">
<g stroke-width="0.8">
<path d="M -14.22636 5.69046 M -9.95863 5.69046 C -9.95863 8.04749 -11.86934 9.95819 -14.22636 9.95819 C -16.58339 9.95819 -18.4941 8.04749 -18.4941 5.69046 C -18.4941 3.33344 -16.58339 1.42273 -14.22636 1.42273 C -11.86934 1.42273 -9.95863 3.33344 -9.95863 5.69046 Z M -14.22636 5.69046" fill="none"/>
</g>
</g>
<g fill="#ececec" stroke="#ececec">
<path d="M 28.45274 28.45274 M 32.72047 28.45274 C 32.72047 30.80977 30.80977 32.72047 28.45274 32.72047 C 26.09572 32.72047 24.18501 30.80977 24.18501 28.45274 C 24.18501 26.09572 26.09572 24.18501 28.45274 24.18501 C 30.80977 24.18501 32.72047 26.09572 32.72047 28.45274 Z M 28.45274 28.45274" stroke="none"/>
</g>
<g stroke="#000">
<g stroke-width="0.8">
<path d="M 28.45274 28.45274 M 32.72047 28.45274 C 32.72047 30.80977 30.80977 32.72047 28.45274 32.72047 C 26.09572 32.72047 24.18501 30.80977 24.18501 28.45274 C 24.18501 26.09572 26.09572 24.18501 28.45274 24.18501 C 30.80977 24.18501 32.72047 26.09572 32.72047 28.45274 Z M 28.45274 28.45274" fill="none"/>
</g>
</g>
<g fill="#b9b9b9" stroke="#b9b9b9">
<path d="M 21.33955 49.7923 M 25.60728 49.7923 C 25.60728 52.14932 23.69658 54.06003 21.33955 54.06003 C 18.98253 54.06003 17.07182 52.14932 17.07182 49.7923 C 17.07182 47.43527 18.98253 45.52457 21.33955 45.52457 C 23.69658 45.52457 25.60728 47.43527 25.60728 49.7923 Z M 21.33955 49.7923" stroke="none"/>
</g>
<g stroke="#000">
<g stroke-width="0.8">
<path d="M 21.33955 49.7923 M 25.60728 49.7923 C 25.60728 52.14932 23.69658 54.06003 21.33955 54.06003 C 18.98253 54.06003 17.07182 52.14932 17.07182 49.7923 C 17.07182 47.43527 18.98253 45.52457 21.33955 45.52457 C 23.69658 45.52457 25.60728 47.43527 25.60728 49.7923 Z M 21.33955 49.7923" fill="none"/>
</g>
</g>
<g fill="#b9b9b9" stroke="#b9b9b9">
<path d="M 13.65718 34.1432 M 17.92491 34.1432 C 17.92491 36.50023 16.0142 38.41093 13.65718 38.41093 C 11.30016 38.41093 9.38945 36.50023 9.38945 34.1432 C 9.38945 31.78618 11.30016 29.87547 13.65718 29.87547 C 16.0142 29.87547 17.92491 31.78618 17.92491 34.1432 Z M 13.65718 34.1432" stroke="none"/>
</g>
<g stroke="#000">
<g stroke-width="0.8">
<path d="M 13.65718 34.1432 M 17.92491 34.1432 C 17.92491 36.50023 16.0142 38.41093 13.65718 38.41093 C 11.30016 38.41093 9.38945 36.50023 9.38945 34.1432 C 9.38945 31.78618 11.30016 29.87547 13.65718 29.87547 C 16.0142 29.87547 17.92491 31.78618 17.92491 34.1432 Z M 13.65718 34.1432" fill="none"/>
</g>
</g>
<g fill="#b9b9b9" stroke="#b9b9b9">
<path d="M 21.05518 13.65718 M 25.3229 13.65718 C 25.3229 16.0142 23.4122 17.92491 21.05518 17.92491 C 18.69815 17.92491 16.78745 16.0142 16.78745 13.65718 C 16.78745 11.30016 18.69815 9.38945 21.05518 9.38945 C 23.4122 9.38945 25.3229 11.30016 25.3229 13.65718 Z M 21.05518 13.65718" stroke="none"/>
</g>
<g stroke="#000">
<g stroke-width="0.8">
<path d="M 21.05518 13.65718 M 25.3229 13.65718 C 25.3229 16.0142 23.4122 17.92491 21.05518 17.92491 C 18.69815 17.92491 16.78745 16.0142 16.78745 13.65718 C 16.78745 11.30016 18.69815 9.38945 21.05518 9.38945 C 23.4122 9.38945 25.3229 11.30016 25.3229 13.65718 Z M 21.05518 13.65718" fill="none"/>
</g>
</g>
<g fill="#b9b9b9" stroke="#b9b9b9">
<path d="M 58.3282 30.729 M 62.59593 30.729 C 62.59593 33.08603 60.68523 34.99673 58.3282 34.99673 C 55.97118 34.99673 54.06047 33.08603 54.06047 30.729 C 54.06047 28.37198 55.97118 26.46127 58.3282 26.46127 C 60.68523 26.46127 62.59593 28.37198 62.59593 30.729 Z M 58.3282 30.729" stroke="none"/>
</g>
<g stroke="#000">
<g stroke-width="0.8">
<path d="M 58.3282 30.729 M 62.59593 30.729 C 62.59593 33.08603 60.68523 34.99673 58.3282 34.99673 C 55.97118 34.99673 54.06047 33.08603 54.06047 30.729 C 54.06047 28.37198 55.97118 26.46127 58.3282 26.46127 C 60.68523 26.46127 62.59593 28.37198 62.59593 30.729 Z M 58.3282 30.729" fill="none"/>
</g>
</g>
<g fill="#b9b9b9" stroke="#b9b9b9">
<path d="M 55.48276 17.64055 M 59.75049 17.64055 C 59.75049 19.99757 57.83978 21.90828 55.48276 21.90828 C 53.12573 21.90828 51.21503 19.99757 51.21503 17.64055 C 51.21503 15.28352 53.12573 13.37282 55.48276 13.37282 C 57.83978 13.37282 59.75049 15.28352 59.75049 17.64055 Z M 55.48276 17.64055" stroke="none"/>
</g>
<g stroke="#000">
<g stroke-width="0.8">
<path d="M 55.48276 17.64055 M 59.75049 17.64055 C 59.75049 19.99757 57.83978 21.90828 55.48276 21.90828 C 53.12573 21.90828 51.21503 19.99757 51.21503 17.64055 C 51.21503 15.28352 53.12573 13.37282 55.48276 13.37282 C 57.83978 13.37282 59.75049 15.28352 59.75049 17.64055 Z M 55.48276 17.64055" fill="none"/>
</g>
</g>
<g fill="#b9b9b9" stroke="#b9b9b9">
<path d="M 39.26492 48.93875 M 43.53265 48.93875 C 43.53265 51.29578 41.62195 53.20648 39.26492 53.20648 C 36.9079 53.20648 34.9972 51.29578 34.9972 48.93875 C 34.9972 46.58173 36.9079 44.67102 39.26492 44.67102 C 41.62195 44.67102 43.53265 46.58173 43.53265 48.93875 Z M 39.26492 48.93875" stroke="none"/>
</g>
<g stroke="#000">
<g stroke-width="0.8">
<path d="M 39.26492 48.93875 M 43.53265 48.93875 C 43.53265 51.29578 41.62195 53.20648 39.26492 53.20648 C 36.9079 53.20648 34.9972 51.29578 34.9972 48.93875 C 34.9972 46.58173 36.9079 44.67102 39.26492 44.67102 C 41.62195 44.67102 43.53265 46.58173 43.53265 48.93875 Z M 39.26492 48.93875" fill="none"/>
</g>
</g>
<g fill="#b9b9b9" stroke="#b9b9b9">
<path d="M 73.9773 28.45274 M 78.24503 28.45274 C 78.24503 30.80977 76.33432 32.72047 73.9773 32.72047 C 71.62027 32.72047 69.70956 30.80977 69.70956 28.45274 C 69.70956 26.09572 71.62027 24.18501 73.9773 24.18501 C 76.33432 24.18501 78.24503 26.09572 78.24503 28.45274 Z M 73.9773 28.45274" stroke="none"/>
</g>
<g stroke="#000">
<g stroke-width="0.8">
<path d="M 73.9773 28.45274 M 78.24503 28.45274 C 78.24503 30.80977 76.33432 32.72047 73.9773 32.72047 C 71.62027 32.72047 69.70956 30.80977 69.70956 28.45274 C 69.70956 26.09572 71.62027 24.18501 73.9773 24.18501 C 76.33432 24.18501 78.24503 26.09572 78.24503 28.45274 Z M 73.9773 28.45274" fill="none"/>
</g>
</g>
<g fill="#b9b9b9" stroke="#b9b9b9">
<path d="M 83.9355 17.64055 M 88.20323 17.64055 C 88.20323 19.99757 86.29253 21.90828 83.9355 21.90828 C 81.57848 21.90828 79.66777 19.99757 79.66777 17.64055 C 79.66777 15.28352 81.57848 13.37282 83.9355 13.37282 C 86.29253 13.37282 88.20323 15.28352 88.20323 17.64055 Z M 83.9355 17.64055" stroke="none"/>
</g>
<g stroke="#000">
<g stroke-width="0.8">
<path d="M 83.9355 17.64055 M 88.20323 17.64055 C 88.20323 19.99757 86.29253 21.90828 83.9355 21.90828 C 81.57848 21.90828 79.66777 19.99757 79.66777 17.64055 C 79.66777 15.28352 81.57848 13.37282 83.9355 13.37282 C 86.29253 13.37282 88.20323 15.28352 88.20323 17.64055 Z M 83.9355 17.64055" fill="none"/>
</g>
</g>
<g fill="#b9b9b9" stroke="#b9b9b9">
<path d="M 67.71767 48.93875 M 71.9854 48.93875 C 71.9854 51.29578 70.07469 53.20648 67.71767 53.20648 C 65.36064 53.20648 63.44994 51.29578 63.44994 48.93875 C 63.44994 46.58173 65.36064 44.67102 67.71767 44.67102 C 70.07469 44.67102 71.9854 46.58173 71.9854 48.93875 Z M 67.71767 48.93875" stroke="none"/>
</g>
<g stroke="#000">
<g stroke-width="0.8">
<path d="M 67.71767 48.93875 M 71.9854 48.93875 C 71.9854 51.29578 70.07469 53.20648 67.71767 53.20648 C 65.36064 53.20648 63.44994 51.29578 63.44994 48.93875 C 63.44994 46.58173 65.36064 44.67102 67.71767 44.67102 C 70.07469 44.67102 71.9854 46.58173 71.9854 48.93875 Z M 67.71767 48.93875" fill="none"/>
</g>
</g>
<g fill="#b9b9b9" stroke="#b9b9b9">
<path d="M 76.25314 11.38092 M 80.52087 11.38092 C 80.52087 13.73795 78.61017 15.64865 76.25314 15.64865 C 73.89612 15.64865 71.98541 13.73795 71.98541 11.38092 C 71.98541 9.0239 73.89612 7.11319 76.25314 7.11319 C 78.61017 7.11319 80.52087 9.0239 80.52087 11.38092 Z M 76.25314 11.38092" stroke="none"/>
</g>
<g stroke="#000">
<g stroke-width="0.8">
<path d="M 76.25314 11.38092 M 80.52087 11.38092 C 80.52087 13.73795 78.61017 15.64865 76.25314 15.64865 C 73.89612 15.64865 71.98541 13.73795 71.98541 11.38092 C 71.98541 9.0239 73.89612 7.11319 76.25314 7.11319 C 78.61017 7.11319 80.52087 9.0239 80.52087 11.38092 Z M 76.25314 11.38092" fill="none"/>
</g>
</g>
<g fill="#b9b9b9" stroke="#b9b9b9">
<path d="M 99.5846 20.48601 M 103.85233 20.48601 C 103.85233 22.84303 101.94162 24.75374 99.5846 24.75374 C 97.22757 24.75374 95.31686 22.84303 95.31686 20.48601 C 95.31686 18.12898 97.22757 16.21828 99.5846 16.21828 C 101.94162 16.21828 103.85233 18.12898 103.85233 20.48601 Z M 99.5846 20.48601" stroke="none"/>
</g>
<g stroke="#000">
<g stroke-width="0.8">
<path d="M 99.5846 20.48601 M 103.85233 20.48601 C 103.85233 22.84303 101.94162 24.75374 99.5846 24.75374 C 97.22757 24.75374 95.31686 22.84303 95.31686 20.48601 C 95.31686 18.12898 97.22757 16.21828 99.5846 16.21828 C 101.94162 16.21828 103.85233 18.12898 103.85233 20.48601 Z M 99.5846 20.48601" fill="none"/>
</g>
</g>
<g fill="#b9b9b9" stroke="#b9b9b9">
<path d="M 103.56796 34.71237 M 107.8357 34.71237 C 107.8357 37.0694 105.92499 38.9801 103.56796 38.9801 C 101.21094 38.9801 99.30023 37.0694 99.30023 34.71237 C 99.30023 32.35535 101.21094 30.44464 103.56796 30.44464 C 105.92499 30.44464 107.8357 32.35535 107.8357 34.71237 Z M 103.56796 34.71237" stroke="none"/>
</g>
<g stroke="#000">
<g stroke-width="0.8">
<path d="M 103.56796 34.71237 M 107.8357 34.71237 C 107.8357 37.0694 105.92499 38.9801 103.56796 38.9801 C 101.21094 38.9801 99.30023 37.0694 99.30023 34.71237 C 99.30023 32.35535 101.21094 30.44464 103.56796 30.44464 C 105.92499 30.44464 107.8357 32.35535 107.8357 34.71237 Z M 103.56796 34.71237" fill="none"/>
</g>
</g>
<g fill="#b9b9b9" stroke="#b9b9b9">
<path d="M 124.62315 14.22636 M 128.89088 14.22636 C 128.89088 16.58339 126.98018 18.4941 124.62315 18.4941 C 122.26613 18.4941 120.35542 16.58339 120.35542 14.22636 C 120.35542 11.86934 122.26613 9.95863 124.62315 9.95863 C 126.98018 9.95863 128.89088 11.86934 128.89088 14.22636 Z M 124.62315 14.22636" stroke="none"/>
</g>
<g stroke="#000">
<g stroke-width="0.8">
<path d="M 124.62315 14.22636 M 128.89088 14.22636 C 128.89088 16.58339 126.98018 18.4941 124.62315 18.4941 C 122.26613 18.4941 120.35542 16.58339 120.35542 14.22636 C 120.35542 11.86934 122.26613 9.95863 124.62315 9.95863 C 126.98018 9.95863 128.89088 11.86934 128.89088 14.22636 Z M 124.62315 14.22636" fill="none"/>
</g>
</g>
<g fill="#b9b9b9" stroke="#b9b9b9">
<path d="M 124.62315 48.93875 M 128.89088 48.93875 C 128.89088 51.29578 126.98018 53.20648 124.62315 53.20648 C 122.26613 53.20648 120.35542 51.29578 120.35542 48.93875 C 120.35542 46.58173 122.26613 44.67102 124.62315 44.67102 C 126.98018 44.67102 128.89088 46.58173 128.89088 48.93875 Z M 124.62315 48.93875" stroke="none"/>
</g>
<g stroke="#000">
<g stroke-width="0.8">
<path d="M 124.62315 48.93875 M 128.89088 48.93875 C 128.89088 51.29578 126.98018 53.20648 124.62315 53.20648 C 122.26613 53.20648 120.35542 51.29578 120.35542 48.93875 C 120.35542 46.58173 122.26613 44.67102 124.62315 44.67102 C 126.98018 44.67102 128.89088 46.58173 128.89088 48.93875 Z M 124.62315 48.93875" fill="none"/>
</g>
</g>
<g fill="#b9b9b9" stroke="#b9b9b9">
<path d="M 28.45274 28.45274 M 32.72047 28.45274 C 32.72047 30.80977 30.80977 32.72047 28.45274 32.72047 C 26.09572 32.72047 24.18501 30.80977 24.18501 28.45274 C 24.18501 26.09572 26.09572 24.18501 28.45274 24.18501 C 30.80977 24.18501 32.72047 26.09572 32.72047 28.45274 Z M 28.45274 28.45274" stroke="none"/>
</g>
<g stroke="#000">
<g stroke-width="0.8">
<path d="M 28.45274 28.45274 M 32.72047 28.45274 C 32.72047 30.80977 30.80977 32.72047 28.45274 32.72047 C 26.09572 32.72047 24.18501 30.80977 24.18501 28.45274 C 24.18501 26.09572 26.09572 24.18501 28.45274 24.18501 C 30.80977 24.18501 32.72047 26.09572 32.72047 28.45274 Z M 28.45274 28.45274" fill="none"/>
</g>
</g>
<g stroke="#000">
<g stroke-width="0.8">
<path d="M 0.0 -14.22636 L 199.1692 -14.22636" fill="none"/>
</g>
</g>
<g stroke="#000">
<g stroke-width="0.8">
<path d="M 0.0 -14.22636 L 0.0 -22.76227" fill="none"/>
</g>
</g>
<g stroke="#000">
<g stroke-width="0.8">
<path d="M 142.26372 -14.22636 L 142.26372 -22.76227" fill="none"/>
</g>
</g>
<g transform="translate(-2.5,-37.57658)">
<g stroke="none" transform="scale(-1.00375,1.00375)translate(45.835396,57.091388)scale(-1,-1)">
<g fill="#000">
<g stroke="none">
<use x="45.835396" y="57.091388" xlink:href="#g1-48"/>
</g>
</g>
</g>
</g>
<g transform="translate(138.86093,-37.96547)">
<g stroke="none" transform="scale(-1.00375,1.00375)translate(45.835396,57.091388)scale(-1,-1)">
<g fill="#000">
<g stroke="none">
<use x="45.835396" y="57.091388" xlink:href="#g0-76"/>
</g>
</g>
</g>
</g>
<g transform="translate(208.39264,-16.37914)">
<g stroke="none" transform="scale(-1.00375,1.00375)translate(45.835396,57.091388)scale(-1,-1)">
<g fill="#000">
<g stroke="none">
<use x="45.835396" y="57.091388" xlink:href="#g0-120"/>
</g>
</g>
</g>
</g>
</g>
</g>
</g>
</g>
</g>
</g>
</svg>